<?xml version="1.0" standalone="no"?>
<!DOCTYPE svg PUBLIC "-//W3C//DTD SVG 20010904//EN"
 "http://www.w3.org/TR/2001/REC-SVG-20010904/DTD/svg10.dtd">
<svg version="1.0" xmlns="http://www.w3.org/2000/svg"
 width="202.000000pt" height="210.000000pt" viewBox="0 0 202.000000 210.000000"
 preserveAspectRatio="xMidYMid meet">

<g transform="translate(0.000000,210.000000) scale(0.100000,-0.100000)"
fill="#000000" stroke="none">
<path d="M679 2063 c-21 -55 -22 -82 -5 -89 9 -3 24 -3 34 1 11 5 13 9 5 12
-8 3 -10 20 -6 54 7 55 -10 68 -28 22z"/>
<path d="M1470 1974 c0 -5 14 -17 31 -26 17 -10 28 -22 24 -28 -3 -6 1 -7 9
-4 13 5 11 10 -12 27 -15 11 -33 25 -39 30 -7 5 -13 6 -13 1z"/>
<path d="M1018 1914 c-96 -59 -166 -79 -268 -78 -65 0 -96 5 -132 21 l-48 22
0 -77 c1 -244 84 -527 204 -695 58 -83 177 -193 256 -239 62 -37 64 -37 92
-20 17 9 64 45 106 78 181 145 298 353 346 614 15 82 39 331 32 337 -2 2 -28
-6 -57 -18 -118 -49 -292 -24 -411 59 l-53 38 -67 -42z m63 -213 l-8 -106 -1
145 c0 108 2 135 9 106 5 -22 6 -82 0 -145z m247 5 c19 -1 22 -6 22 -41 l-1
-40 -15 27 c-8 15 -23 32 -34 38 -22 12 -70 13 -86 2 -42 -27 -53 -152 -18
-199 16 -21 30 -28 55 -28 34 0 34 0 34 48 l0 47 45 0 c34 0 41 -3 32 -12 -7
-7 -12 -29 -12 -49 0 -30 -4 -38 -22 -43 -43 -11 -120 -6 -154 10 -72 34 -90
138 -36 204 24 30 90 51 132 43 19 -3 45 -7 58 -7z m-311 -31 c29 -33 29 -50
-2 -80 -16 -17 -35 -25 -60 -25 l-35 0 0 -54 c0 -34 5 -56 13 -59 6 -3 -13 -6
-43 -6 -34 0 -50 3 -42 8 11 6 13 36 10 127 l-3 119 70 -2 c62 -1 72 -4 92
-28z m-244 -312 c-13 -2 -35 -2 -50 0 -16 2 -5 4 22 4 28 0 40 -2 28 -4z m677
-3 c0 -12 -117 -12 -145 0 -13 6 7 9 63 9 48 1 82 -3 82 -9z m-472 -44 c18 -1
22 -7 21 -36 0 -30 -1 -32 -9 -13 -16 39 -76 57 -99 29 -18 -21 -4 -41 49 -70
82 -45 102 -95 55 -142 -22 -22 -32 -25 -90 -22 l-65 3 1 45 0 45 16 -32 c26
-51 101 -69 117 -28 9 25 -3 40 -57 71 -28 16 -58 42 -67 57 -13 24 -13 30 0
54 19 34 58 55 85 47 11 -3 30 -7 43 -8z m99 -223 c-1 -43 -3 -8 -3 77 0 85 2
120 3 78 2 -43 2 -113 0 -155z m198 115 c27 -62 55 -121 63 -130 14 -17 12
-18 -37 -18 -34 0 -50 4 -46 11 4 5 4 21 1 35 -6 21 -12 24 -56 24 -45 0 -50
-2 -56 -26 -4 -17 -2 -29 7 -35 10 -6 4 -9 -18 -9 l-32 0 18 33 c11 17 38 76
61 130 24 53 44 97 45 97 1 0 24 -51 50 -112z"/>
<path d="M920 1635 c0 -40 4 -55 14 -55 21 0 37 25 38 58 1 37 -8 52 -33 52
-16 0 -19 -7 -19 -55z"/>
<path d="M1186 1198 c-22 -52 -20 -58 14 -58 34 0 37 11 16 61 l-15 34 -15
-37z"/>
<path d="M520 1936 c0 -8 4 -17 9 -20 5 -4 7 3 4 14 -6 23 -13 26 -13 6z"/>
<path d="M564 1923 c2 -11 24 -27 57 -40 68 -28 191 -31 265 -7 62 21 83 39
34 30 -141 -26 -202 -30 -248 -17 -26 8 -55 13 -65 13 -9 0 -15 3 -12 8 4 6
-2 7 -11 3 -11 -4 -15 -3 -10 5 3 6 2 13 -3 16 -5 4 -8 -2 -7 -11z"/>
<path d="M698 1934 c-12 -11 4 -34 24 -34 13 0 18 6 16 17 -3 18 -29 29 -40
17z"/>
<path d="M1392 1924 c-30 -21 -28 -34 6 -34 36 0 54 13 46 33 -8 21 -23 21
-52 1z"/>
<path d="M486 1774 c-18 -25 -18 -25 3 -12 12 7 21 18 21 25 0 18 -2 16 -24
-13z"/>
<path d="M1660 1782 c0 -5 10 -17 21 -28 22 -19 22 -19 10 3 -12 24 -31 39
-31 25z"/>
<path d="M511 1694 c0 -11 3 -14 6 -6 3 7 2 16 -1 19 -3 4 -6 -2 -5 -13z"/>
<path d="M1620 1560 c0 -5 5 -10 11 -10 5 0 7 5 4 10 -3 6 -8 10 -11 10 -2 0
-4 -4 -4 -10z"/>
<path d="M551 1470 c0 -8 4 -24 9 -35 5 -13 9 -14 9 -5 0 8 -4 24 -9 35 -5 13
-9 14 -9 5z"/>
<path d="M570 1398 c-1 -43 87 -244 140 -318 11 -16 21 -45 21 -67 l1 -38 8
40 c6 33 4 45 -15 70 -42 55 -86 144 -120 237 -19 51 -34 85 -35 76z"/>
<path d="M422 1370 c0 -14 2 -19 5 -12 2 6 2 18 0 25 -3 6 -5 1 -5 -13z"/>
<path d="M1741 1374 c0 -11 3 -14 6 -6 3 7 2 16 -1 19 -3 4 -6 -2 -5 -13z"/>
<path d="M470 1221 c0 -6 4 -13 10 -16 6 -3 7 1 4 9 -7 18 -14 21 -14 7z"/>
<path d="M1681 1203 c-10 -26 -10 -27 4 -9 8 11 15 23 15 28 0 15 -7 8 -19
-19z"/>
<path d="M1443 1141 c-23 -37 -73 -101 -110 -142 -37 -41 -53 -61 -35 -45 18
17 32 26 32 22 0 -5 7 -3 15 4 8 7 12 17 9 22 -3 5 2 12 12 14 34 10 144 168
128 184 -5 5 -27 -20 -51 -59z"/>
<path d="M1554 1185 c-3 -14 -3 -42 2 -63 4 -20 8 -40 8 -44 1 -3 4 -9 8 -13
12 -12 21 43 14 90 -8 52 -23 66 -32 30z"/>
<path d="M570 1179 c-7 -11 -10 -23 -7 -25 2 -2 9 7 15 21 14 30 7 33 -8 4z"/>
<path d="M1531 1174 c0 -11 3 -14 6 -6 3 7 2 16 -1 19 -3 4 -6 -2 -5 -13z"/>
<path d="M550 1110 c0 -16 4 -30 8 -30 5 0 7 14 4 30 -2 17 -6 30 -8 30 -2 0
-4 -13 -4 -30z"/>
<path d="M1456 1094 c-13 -33 -6 -49 9 -20 18 33 18 36 6 36 -5 0 -12 -7 -15
-16z"/>
<path d="M1491 1074 c0 -11 3 -14 6 -6 3 7 2 16 -1 19 -3 4 -6 -2 -5 -13z"/>
<path d="M641 1064 c0 -11 3 -14 6 -6 3 7 2 16 -1 19 -3 4 -6 -2 -5 -13z"/>
<path d="M1635 1061 c-3 -5 -2 -12 3 -15 5 -3 9 1 9 9 0 17 -3 19 -12 6z"/>
<path d="M1472 1025 c0 -16 2 -22 5 -12 2 9 2 23 0 30 -3 6 -5 -1 -5 -18z"/>
<path d="M642 1015 c0 -16 2 -22 5 -12 2 9 2 23 0 30 -3 6 -5 -1 -5 -18z"/>
<path d="M1490 1006 c0 -21 -21 -31 -31 -15 -5 8 -9 9 -9 3 0 -5 7 -19 15 -30
14 -19 14 -19 15 0 0 20 0 20 15 0 9 -11 14 -14 15 -6 0 7 12 24 28 38 22 21
23 23 5 15 -12 -6 -25 -16 -28 -21 -11 -18 -23 -11 -18 10 3 11 3 20 -1 20 -3
0 -6 -6 -6 -14z"/>
<path d="M762 970 c0 -14 2 -19 5 -12 2 6 2 18 0 25 -3 6 -5 1 -5 -13z"/>
<path d="M646 966 c10 -8 21 -12 24 -10 5 6 -21 24 -34 24 -6 0 -1 -6 10 -14z"/>
<path d="M824 950 c9 -14 21 -35 28 -47 10 -20 36 -38 44 -31 1 2 -18 26 -43
53 -25 28 -38 39 -29 25z"/>
<path d="M1343 959 c-11 -11 -6 -59 6 -59 5 0 10 70 6 70 -1 0 -6 -5 -12 -11z"/>
<path d="M1553 958 c-18 -5 -33 -11 -33 -13 0 -8 58 -35 75 -35 9 0 23 7 31
15 13 12 11 16 -13 28 -20 10 -37 11 -60 5z"/>
<path d="M736 934 c-7 -18 10 -44 28 -44 6 0 11 11 11 24 0 13 -2 22 -4 20 -2
-2 -10 1 -16 6 -9 8 -15 6 -19 -6z"/>
<path d="M714 882 c-5 -4 -9 -18 -9 -32 0 -22 -5 -25 -37 -28 -40 -3 -47 4
-25 28 10 12 9 12 -5 1 -10 -7 -18 -19 -18 -26 0 -16 45 -28 73 -19 25 8 80
61 70 67 -21 11 -41 15 -49 9z"/>
<path d="M1380 850 c14 -26 50 -40 98 -39 l37 1 -45 9 c-25 5 -58 18 -73 30
l-29 21 12 -22z"/>
<path d="M835 850 c-5 -6 -25 -22 -42 -36 -31 -25 -45 -64 -22 -64 5 0 8 4 5
9 -3 4 4 17 17 27 19 16 20 16 8 1 -12 -15 -12 -17 3 -11 10 4 14 13 11 24 -4
13 4 22 30 34 19 9 35 19 35 21 0 9 -35 4 -45 -5z"/>
<path d="M935 836 c20 -14 20 -15 1 -50 -29 -54 -12 -54 18 0 14 26 25 48 24
49 -2 1 -16 5 -33 9 -28 7 -29 7 -10 -8z"/>
<path d="M1227 844 c-11 -12 57 -74 92 -84 51 -14 49 -6 -4 14 -45 18 -72 47
-60 66 7 11 -18 14 -28 4z"/>
<path d="M1608 745 c4 -71 6 -68 -60 -65 l-38 2 0 -47 c0 -39 -3 -46 -17 -43
-14 2 -19 15 -21 51 -4 59 -22 52 -22 -8 0 -38 -2 -43 -20 -38 -16 4 -20 14
-20 49 0 24 -4 44 -10 44 -5 0 -10 -25 -10 -55 0 -45 3 -55 18 -56 21 -1 68
-7 139 -18 50 -8 55 -7 63 13 4 12 6 -7 3 -45 -3 -37 -2 -69 3 -71 5 -3 35 -9
67 -12 l57 -7 0 56 c0 52 2 56 20 51 11 -3 29 -9 40 -12 12 -3 20 -1 20 6 0 7
-9 14 -20 17 -11 3 -20 12 -20 20 0 9 6 13 15 10 8 -4 17 -2 21 4 3 6 -3 13
-15 16 -27 7 -27 23 -1 23 28 0 25 20 -2 21 -13 1 -30 2 -38 3 -11 1 -16 19
-20 71 l-5 70 -45 7 c-89 13 -85 16 -82 -57z m-28 -124 c0 -35 -2 -38 -25 -33
-30 5 -34 22 -5 22 27 0 25 20 -2 28 -23 6 -23 6 2 13 14 4 26 7 28 8 1 1 2
-16 2 -38z m167 -33 c-3 -7 -5 -2 -5 12 0 14 2 19 5 13 2 -7 2 -19 0 -25z"/>
<path d="M400 730 c0 -33 -4 -60 -10 -60 -6 0 -10 -28 -11 -62 0 -50 -2 -58
-10 -40 -5 13 -6 34 -3 46 7 28 -15 47 -44 39 -21 -5 -23 -11 -20 -67 2 -35 7
-60 13 -58 6 2 9 14 8 28 -2 31 11 31 25 -1 7 -16 19 -25 29 -23 18 3 20 0 22
-58 1 -35 1 -35 42 -32 41 3 41 4 45 46 3 26 0 42 -7 42 -6 0 -1 9 12 19 14
11 26 15 30 9 10 -16 81 2 86 23 6 23 29 25 37 3 10 -27 50 -13 57 21 l6 30 7
-27 c5 -16 14 -28 22 -28 10 0 11 6 4 26 -15 39 -10 53 6 16 17 -38 39 -50 64
-34 13 8 21 7 29 -1 8 -8 11 -3 11 21 0 25 4 32 20 32 15 0 20 -7 20 -25 0
-14 5 -25 10 -25 13 0 13 117 1 125 -5 3 -11 -7 -13 -22 -4 -34 -32 -38 -36
-5 -6 43 -22 22 -22 -30 0 -28 -3 -48 -7 -45 -3 4 -12 2 -20 -5 -21 -17 -35 3
-31 43 2 28 7 34 26 33 12 0 22 5 22 13 0 23 -53 11 -65 -14 l-11 -21 -9 21
c-7 14 -19 22 -35 22 -23 0 -25 -4 -30 -55 -5 -54 -5 -54 -13 -19 -4 19 -14
44 -22 55 -13 16 -16 17 -24 4 -6 -8 -13 -32 -17 -53 -3 -21 -12 -41 -20 -44
-22 -8 -31 7 -11 18 23 13 22 29 -3 29 -26 0 -26 16 1 23 29 8 18 33 -12 29
-13 -2 -29 -8 -34 -12 -6 -5 -19 -2 -29 6 -11 8 -14 14 -8 14 7 0 12 13 12 30
0 17 -5 30 -11 30 -6 0 -9 7 -5 15 4 12 -3 15 -34 15 l-40 0 0 -60z m310 -66
c0 -8 -4 -12 -10 -9 -5 3 -10 10 -10 16 0 5 5 9 10 9 6 0 10 -7 10 -16z m-200
-29 c0 -13 -4 -14 -20 -5 -11 6 -20 13 -20 15 0 3 9 5 20 5 11 0 20 -7 20 -15z
m-170 -15 c0 -5 -4 -10 -10 -10 -5 0 -10 5 -10 10 0 6 5 10 10 10 6 0 10 -4
10 -10z"/>
<path d="M1035 780 c3 -5 11 -10 16 -10 6 0 7 5 4 10 -3 6 -11 10 -16 10 -6 0
-7 -4 -4 -10z"/>
<path d="M1125 780 c3 -6 21 -17 38 -26 l32 -15 -30 25 c-30 26 -51 34 -40 16z"/>
<path d="M1840 590 c0 -173 -1 -180 -20 -180 -16 0 -20 -7 -20 -31 0 -27 3
-30 23 -24 12 4 26 11 31 15 5 5 9 94 10 199 1 144 -2 192 -11 196 -10 3 -13
-36 -13 -175z"/>
<path d="M964 706 c-3 -8 -4 -20 -3 -27 2 -8 -1 -24 -5 -37 -11 -33 8 -51 55
-49 21 1 39 5 39 9 0 4 -5 8 -10 8 -6 0 -8 11 -4 25 4 15 2 25 -5 25 -6 0 -11
-5 -11 -11 0 -5 -5 -7 -10 -4 -7 4 -6 13 1 26 6 11 8 27 5 35 -7 18 -45 18
-52 0z m36 -16 c0 -5 -4 -10 -10 -10 -5 0 -10 5 -10 10 0 6 5 10 10 10 6 0 10
-4 10 -10z m-2 -69 c3 -8 -1 -12 -9 -9 -7 2 -15 10 -17 17 -3 8 1 12 9 9 7 -2
15 -10 17 -17z"/>
<path d="M1092 653 l3 -58 35 -3 c24 -3 38 2 48 15 13 17 14 17 28 -1 19 -26
28 -15 13 18 -9 20 -9 32 -1 51 7 16 8 25 1 25 -5 0 -12 -7 -16 -16 -5 -14 -9
-13 -24 7 -20 26 -26 10 -8 -23 17 -31 -5 -66 -37 -60 -17 3 -24 10 -21 21 2
9 9 15 15 14 7 -2 12 2 12 7 0 6 -7 10 -15 10 -8 0 -15 7 -15 15 0 8 9 15 20
15 11 0 20 5 20 10 0 6 -14 10 -30 10 l-31 0 3 -57z"/>
<path d="M1238 675 c-16 -36 0 -79 31 -83 13 -2 28 2 35 9 8 9 6 11 -11 6 -27
-6 -46 14 -41 45 2 18 9 23 31 21 24 -2 27 0 17 13 -19 22 -49 17 -62 -11z"/>
<path d="M1320 638 c0 -55 1 -58 25 -58 30 0 33 16 4 23 -23 6 -17 27 7 27 22
0 17 17 -8 25 -22 7 -22 7 -3 12 35 9 38 20 6 25 l-31 5 0 -59z"/>
<path d="M1518 445 c17 -12 22 -26 22 -59 0 -48 13 -58 93 -72 36 -6 37 -6 37
25 0 28 -3 31 -39 37 -37 6 -40 9 -43 43 -3 35 -4 36 -48 39 -44 3 -44 3 -22
-13z"/>
<path d="M500 410 c0 -21 5 -42 10 -45 6 -3 10 -15 10 -26 0 -41 25 -11 31 36
3 29 12 53 23 60 15 12 12 13 -28 13 l-46 0 0 -38z"/>
<path d="M238 393 c-22 -5 -23 -21 -3 -43 8 -9 16 -29 17 -45 l3 -28 75 6 c98
7 110 12 110 49 0 24 -3 29 -17 24 -9 -4 -42 -9 -73 -13 l-57 -6 2 32 c2 32
-9 37 -57 24z"/>
</g>
</svg>
